<?xml version="1.0" encoding="UTF-8"?>
<svg width="260px" height="260px" viewBox="0 0 260 260" version="1.1" xmlns="http://www.w3.org/2000/svg" xmlns:xlink="http://www.w3.org/1999/xlink">
    <!-- Generator: Sketch 48.2 (47327) - http://www.bohemiancoding.com/sketch -->
    <title>Rectangle 2</title>
    <desc>Created with Sketch.</desc>
    <defs></defs>
    <g id="Page-1" stroke="none" stroke-width="1" fill="none" fill-rule="evenodd">
        <g id="Logo" transform="translate(28.000000, 6.000000)" fill="#000000">
            <g id="Letter-1" transform="translate(102.631579, 0.000000)">
                <path d="M99.4736842,132.324785 L99.4736842,219.473684 L37.8947368,219.473684 L37.8947368,108.747031 L65.7611101,74.3349262 C66.5073785,74.7582776 67.3701975,75 68.2894737,75 C68.9261148,75 69.5356779,74.8840651 70.0982025,74.6721558 L99.4736842,132.324785 Z M99.4736842,127.107889 L72.0743592,73.333686 C72.7198897,72.6289986 73.1712088,71.7434706 73.3435457,70.7618726 L99.4736842,77.2768479 L99.4736842,127.107889 Z M60.2112189,37.3965314 L65.6657006,65.4574071 C64.6454851,66.065563 63.854072,67.0176092 63.4514139,68.1535932 L37.8947368,74.5255884 L37.8947368,56.8421053 L26.0526316,56.8421053 L26.0526316,46.5789474 L60.2112189,37.3965314 Z M62.5041566,36.7801503 L99.4736842,26.8421053 L99.4736842,28.5362151 L70.7152896,65.3452816 C69.992963,64.9570755 69.1669375,64.7368421 68.2894737,64.7368421 C68.1722411,64.7368421 68.0559268,64.7407733 67.9406552,64.748511 L62.5041566,36.7801503 Z M37.8947368,104.983573 L37.8947368,76.9665155 L63.2174719,70.6528485 C63.3333909,71.4085586 63.614169,72.109955 64.0219366,72.7191683 L37.8947368,104.983573 Z M99.4736842,74.8359208 L73.1697018,68.2776014 C73.0104927,67.7888629 72.7799092,67.3323528 72.4902586,66.9203784 L99.4736842,32.3831686 L99.4736842,74.8359208 Z" id="Combined-Shape"></path>
            </g>
            <g id="Letter-2" transform="translate(0.000000, 30.000000)">
                <path d="M95.1359494,75.8491546 C93.3414446,76.1246604 91.8532884,77.3297721 91.178603,78.957368 L81.6876652,77.6235037 C82.8901452,71.6485789 80.5808903,58.4953509 74.3230023,65.927452 L50.5151587,56.788477 C50.5225579,56.6757295 50.5263158,56.5619878 50.5263158,56.4473684 C50.5263158,55.1159537 50.0192649,53.902967 49.1877325,52.9909776 L57.0459518,39.3801424 C57.3632868,39.4415319 57.6910465,39.4736842 58.0263158,39.4736842 C60.8244122,39.4736842 63.0994465,37.2341891 63.1567864,34.4498311 L91.9308792,26.7398362 C92.5949129,28.4344999 94.1341995,29.6900019 95.9925697,29.9501732 L95.1359494,75.8491546 Z M97.4507962,76.0213532 L98.2582479,29.7624769 C100.335924,29.1060372 101.842105,27.1631229 101.842105,24.8684211 C101.842105,24.6070793 101.822569,24.3503005 101.784877,24.0994655 L115.91029,20.3145723 C119.215349,23.8274917 122.900304,28.3994883 126.315789,33.9473684 C126.315789,33.9473684 119.210526,37.1052632 119.210526,37.1052632 C119.210526,37.1052632 122.639674,38.9606034 129.49797,42.6712839 L130.263158,82.1052632 L125.526316,76.5789474 L123.947368,82.8947368 L124.119012,83.5868406 L101.020156,80.340508 C100.790056,78.296958 99.3597549,76.6167248 97.4507962,76.0213532 Z M94.3686693,116.96116 L74.5275673,134.030578 C73.7134726,132.272321 71.9333837,131.052632 69.8684211,131.052632 C68.523006,131.052632 67.2985227,131.570402 66.3833605,132.417554 L42.4992633,107.684847 C56.5657704,97.6606667 76.4667844,89.8048756 80.9332555,79.9091752 L90.8029828,81.2962749 C90.9715051,83.628247 92.6983269,85.5283418 94.9472425,85.9603532 L94.3686693,116.96116 Z M96.7335991,117.109546 L97.2788687,85.8710719 C98.881133,85.4325702 100.170545,84.2369292 100.738615,82.692637 L124.733579,86.0649092 L126.101074,91.5789474 L98.6842105,126.315789 L96.7335991,117.109546 Z M96.3438894,12.6271047 L96.3157895,12.6315789 L96.1826823,19.7636588 C93.7583399,20.0113795 91.8335852,21.9467511 91.6022762,24.3759152 L62.6585852,32.1313539 C62.4576486,31.7110806 62.2012018,31.3224234 61.898736,30.9748737 L79.3592906,0.732306025 L86.0526316,12.6315789 L99.0253649,4.63623047 L96.3438894,12.6271047 Z M98.5616953,12.377989 C102.230155,11.7088315 104.68079,11.57235 105.9136,11.9685444 C106.968759,12.3076464 110.093988,14.4960978 114.014496,18.3705791 L100.88819,21.8877622 C100.282956,21.0409882 99.4266838,20.3859356 98.4281056,20.0313374 L98.5616953,12.377989 Z M30.5146344,94.3294956 L29.7621028,91.705106 C31.3182579,90.8237442 32.3684211,89.1529325 32.3684211,87.2368421 C32.3684211,86.0315308 31.9528711,84.9232764 31.2572231,84.0475308 L44.297363,61.461346 C44.6509212,61.5383692 45.0180903,61.5789474 45.3947368,61.5789474 C47.2762258,61.5789474 48.9212148,60.5663702 49.8144839,59.0564355 L72.9641908,67.9427754 C68.4174684,75.8970832 61.2206457,77.5435694 46.5789474,79.7368421 C40.4139223,86.5110205 34.7093031,91.9459256 30.5146315,94.3294972 Z M28.3381184,95.3316081 C28.0946867,95.4121221 27.8590651,95.4772016 27.6315789,95.5263158 C27.6315789,105.247867 22.7012233,111.070621 18.1578947,107.368421 C18.08642,107.285455 18.012817,107.202209 17.9370859,107.118685 L26.4847492,92.3136981 C26.730226,92.3497501 26.9813536,92.3684211 27.2368421,92.3684211 C27.3206202,92.3684211 27.4039294,92.3664134 27.4867242,92.3624436 L28.3381184,95.3316081 Z M18.0087493,50.7162914 L20.172452,47.6779256 L40.3642366,55.4288255 C40.2979443,55.7580278 40.2631579,56.0986357 40.2631579,56.4473684 C40.2631579,58.0543541 41.001825,59.4888148 42.1581457,60.4297369 L29.375106,82.5706111 C28.7241749,82.271838 27.9999613,82.1052632 27.2368421,82.1052632 C27.1610983,82.1052632 27.0857378,82.1069042 27.0107942,82.1101527 L18.0087493,50.7162914 Z M16.328766,53.450019 L24.7323697,82.7568681 C23.1647861,83.6350864 22.1052632,85.3122318 22.1052632,87.2368421 C22.1052632,88.9634644 22.9580087,90.4909172 24.2653197,91.4210207 L15.1374277,107.230993 L14.2105263,108.157895 C12.1091566,108.157895 10.8389829,108.157895 10.4000051,108.157895 C10.4000051,108.157895 0.225123355,97.9321289 0.225123355,97.9321289 C0.225123355,97.9321289 0.225123355,82.2729492 0.225123355,82.2729492 C2.28848735,78.6559847 7.65636823,69.0483413 16.328766,53.450019 Z M21.591227,45.6856199 L21.6777632,45.5641019 L53.636326,37.0008308 C53.9626371,37.5384704 54.3849301,38.0113939 54.8794299,38.3958263 L47.2258923,51.6521424 C46.6571557,51.4348297 46.0398479,51.3157895 45.3947368,51.3157895 C43.7583685,51.3157895 42.3008918,52.0817156 41.3612529,53.2746218 L21.591227,45.6856199 Z M40.5106972,109.035103 L64.7625162,134.148597 C62.8132004,134.755419 61.3231732,135.845221 60.2924348,137.418003 L8.36719497,137.418003 C10.2540578,132.388328 18.2554361,123.763264 40.5106972,109.035103 Z M7.89473684,139.786424 L66.213675,139.786424 C66.3001973,139.8742 66.389858,139.958874 66.4824751,140.040265 L13.4716226,189.473684 L7.89473684,189.473684 C7.89473684,157.545461 7.89473684,140.983041 7.89473684,139.786424 Z M97.0147584,139.736842 L131.929225,139.736842 L131.929225,189.473684 L126.795759,189.473684 L73.518149,139.791509 C73.5198224,139.789815 73.5214953,139.78812 73.523167,139.786424 L97.0147584,139.786424 L97.0147584,139.736842 Z M76.705032,0.59277468 L59.9640612,29.5889866 C59.3661733,29.3449905 58.7119474,29.2105263 58.0263158,29.2105263 C55.192223,29.2105263 52.8947368,31.5080125 52.8947368,34.3421053 C52.8947368,34.477161 52.8999542,34.6109982 52.9101984,34.7434262 L22.9101563,42.7819133 L22.9101563,28.5108707 L42.7707391,0.708136308 L42.7707391,9.56350226 L76.705032,0.59277468 Z M16.9443891,189.473684 L68.7246121,141.187845 C69.0924206,141.271574 69.4752573,141.315789 69.8684211,141.315789 C70.4103185,141.315789 70.9325976,141.231793 71.422949,141.076111 L123.322992,189.473684 L16.9443891,189.473684 Z" id="Combined-Shape"></path>
            </g>
        </g>
    </g>
</svg>