<?xml version="1.0" encoding="UTF-8"?>
<svg width="26px" height="26px" viewBox="0 0 26 26" version="1.1" xmlns="http://www.w3.org/2000/svg" xmlns:xlink="http://www.w3.org/1999/xlink">
    <!-- Generator: Sketch 48.2 (47327) - http://www.bohemiancoding.com/sketch -->
    <title>Slice</title>
    <desc>Created with Sketch.</desc>
    <defs></defs>
    <g id="Page-1" stroke="none" stroke-width="1" fill="none" fill-rule="evenodd">
        <g id="Logo" transform="translate(1.000000, -1.000000)" fill="#FFFFFF">
            <g id="Letter-1" transform="translate(11.973684, 0.000000)">
                <path d="M11.6052632,15.4378916 L11.6052632,25.6052632 L4.42105263,25.6052632 L4.42105263,12.6871536 L7.67212951,8.67240805 C7.75919416,8.72179906 7.85985637,8.75 7.96710526,8.75 C8.04138006,8.75 8.11249576,8.73647426 8.17812362,8.71175151 L11.6052632,15.4378916 Z M11.6052632,14.8292537 L8.40867523,8.5555967 C8.48398714,8.47338317 8.53664103,8.37007157 8.556747,8.25555181 L11.6052632,9.01563225 L11.6052632,14.8292537 Z M7.02464221,4.36292867 L7.6609984,7.6366975 C7.54197326,7.70764902 7.44964174,7.81872108 7.40266495,7.95125254 L4.42105263,8.69465198 L4.42105263,6.63157895 L3.03947368,6.63157895 L3.03947368,5.43421053 L7.02464221,4.36292867 Z M7.29215161,4.29101754 L11.6052632,3.13157895 L11.6052632,3.3292251 L8.25011712,7.62361619 C8.16584569,7.57832548 8.06947604,7.55263158 7.96710526,7.55263158 C7.95342813,7.55263158 7.93985812,7.55309021 7.92640978,7.55399295 L7.29215161,4.29101754 Z M4.42105263,12.2480835 L4.42105263,8.9794268 L7.37537173,8.24283232 C7.38889561,8.33099851 7.42165305,8.41282809 7.46922593,8.48390297 L4.42105263,12.2480835 Z M11.6052632,8.73085743 L8.53646521,7.96572017 C8.51789082,7.90870068 8.49098941,7.85544116 8.45719684,7.80737747 L11.6052632,3.77803634 L11.6052632,8.73085743 Z" id="Combined-Shape"></path>
            </g>
            <g id="Letter-2" transform="translate(0.000000, 3.500000)">
                <path d="M11.0991941,8.84906804 C10.8898352,8.88121037 10.716217,9.02180675 10.6375037,9.21169293 L9.5302276,9.05607543 C9.67051694,8.35900087 9.40110387,6.82445761 8.67101694,7.69153606 L5.89343518,6.62532232 C5.89429842,6.61216844 5.89473684,6.59889858 5.89473684,6.58552632 C5.89473684,6.43019459 5.83558091,6.28867948 5.73856879,6.18228071 L6.65536104,4.59434995 C6.69238345,4.60151205 6.73062209,4.60526316 6.76973684,4.60526316 C7.09618142,4.60526316 7.36160209,4.34398873 7.36829175,4.01914697 L10.7252692,3.11964756 C10.8027398,3.31735832 10.9823233,3.46383356 11.1991331,3.49418688 L11.0991941,8.84906804 Z M11.3692596,8.86915787 L11.4634623,3.47228898 C11.7058578,3.39570434 11.8815789,3.16903101 11.8815789,2.90131579 C11.8815789,2.87082592 11.8792997,2.8408684 11.8749023,2.8116043 L13.5228672,2.37003344 C13.9084573,2.77987403 14.3383689,3.31327364 14.7368421,3.96052632 C14.7368421,3.96052632 13.9078947,4.32894737 13.9078947,4.32894737 C13.9078947,4.32894737 14.307962,4.54540373 15.1080965,4.97831646 L15.1973684,9.57894737 L14.6447368,8.93421053 L14.4605263,9.67105263 L14.4805514,9.75179807 L11.7856848,9.37305927 C11.7588399,9.1346451 11.5919714,8.9386179 11.3692596,8.86915787 Z M11.0096781,13.6454686 L8.69488285,15.6369008 C8.59990514,15.4317708 8.3922281,15.2894737 8.15131579,15.2894737 C7.9943507,15.2894737 7.85149432,15.3498802 7.7447254,15.4487146 L4.95824819,12.563233 C6.59933988,11.3937445 8.92112485,10.4772355 9.44221315,9.32273711 L10.5936813,9.48456541 C10.6133423,9.75662882 10.8148048,9.97830654 11.0771783,10.0287079 L11.0096781,13.6454686 Z M11.2855866,13.6627804 L11.3492014,10.0182917 C11.5361322,9.96713319 11.6865635,9.82764174 11.7528385,9.64747432 L14.5522509,10.0409061 L14.711792,10.6842105 L11.5131579,14.7368421 L11.2855866,13.6627804 Z M11.2401204,1.47316222 L11.2368421,1.47368421 L11.2213129,2.30576019 C10.938473,2.33466095 10.7139183,2.56045429 10.6869322,2.84385678 L7.31016827,3.74865795 C7.28672567,3.69962607 7.25680687,3.65428273 7.2215192,3.61373526 L9.2585839,0.0854357029 L10.0394737,1.47368421 L11.5529592,0.540893555 L11.2401204,1.47316222 Z M11.4988644,1.44409872 C11.9268515,1.36603034 12.2127589,1.3501075 12.3565867,1.39633018 C12.4796886,1.43589208 12.8442986,1.69121141 13.3016912,2.14323423 L11.7702888,2.55357226 C11.6996782,2.45478196 11.5997798,2.37835915 11.483279,2.33698936 L11.4988644,1.44409872 Z M3.56004068,11.0051078 L3.47224532,10.698929 C3.65379676,10.5961035 3.77631579,10.4011755 3.77631579,10.1776316 C3.77631579,10.0370119 3.72783496,9.90771558 3.64667603,9.80554526 L5.16802568,7.17049037 C5.20927414,7.1794764 5.25211053,7.18421053 5.29605263,7.18421053 C5.51555968,7.18421053 5.70747506,7.06607652 5.81168979,6.88991748 L8.51248893,7.92665713 C7.98203798,8.85465971 7.14240866,9.04674976 5.43421053,9.30263158 C4.71495776,10.0929522 4.04941899,10.7270244 3.56004068,11.0051078 Z M3.30611381,11.1220209 C3.27771345,11.1314142 3.25022426,11.1390069 3.22368421,11.1447368 C3.22368421,12.2789178 2.64847605,12.9582391 2.11842105,12.5263158 C2.11008233,12.5166364 2.10149532,12.5069244 2.09266002,12.4971799 L3.08988741,10.7699314 C3.11852636,10.7741375 3.14782459,10.7763158 3.17763158,10.7763158 C3.18740569,10.7763158 3.1971251,10.7760816 3.20678449,10.7756184 L3.30611381,11.1220209 Z M2.10102075,5.91690067 L2.35345274,5.56242465 L4.70916093,6.4666963 C4.70142684,6.50510325 4.69736842,6.54484083 4.69736842,6.58552632 C4.69736842,6.77300798 4.78354625,6.94036173 4.91845033,7.05013598 L3.4270957,9.63323796 C3.35115373,9.59838111 3.26666215,9.57894737 3.17763158,9.57894737 C3.1687948,9.57894737 3.16000274,9.57913882 3.15125932,9.57951781 L2.10102075,5.91690067 Z M1.9050229,6.23583627 L2.88544314,9.65496795 C2.70255838,9.75742674 2.57894737,9.95309371 2.57894737,10.1776316 C2.57894737,10.3790708 2.67843434,10.5572737 2.83095396,10.6657857 L1.76603323,12.5102826 L1.65789474,12.6184211 C1.41273494,12.6184211 1.264548,12.6184211 1.21333393,12.6184211 C1.21333393,12.6184211 0.0262643914,11.425415 0.0262643914,11.425415 C0.0262643914,11.425415 0.0262643914,9.59851074 0.0262643914,9.59851074 C0.266990191,9.17653155 0.89324296,8.05563982 1.9050227,6.23583555 Z M2.51897648,5.32998899 L2.52907237,5.31581189 L6.25757137,4.3167636 C6.295641,4.37948821 6.34490852,4.43466262 6.40260016,4.47951307 L5.50968743,6.02608328 C5.44333483,6.00073013 5.37131559,5.98684211 5.29605263,5.98684211 C5.10514299,5.98684211 4.93510405,6.07620016 4.8254795,6.21537255 L2.51897648,5.32998899 Z M4.726248,12.720762 L7.5556269,15.6506696 C7.32820671,15.7214656 7.15437021,15.8486092 7.03411739,16.0321004 L0.976172746,16.0321004 C1.19630712,15.4453045 2.12980141,14.4390471 4.726248,12.720762 Z M0.921052632,16.3084162 L7.72492875,16.3084162 C7.73502302,16.3186567 7.74548343,16.3285353 7.75628877,16.3380309 L1.5716893,22.1052632 L0.921052632,22.1052632 C0.921052632,18.3802978 0.921052632,16.4480153 0.921052632,16.3084155 Z M11.3183885,16.3026316 L15.3917429,16.3026316 L15.3917429,22.1052632 L14.7928385,22.1052632 L8.57711738,16.3090094 C8.57731146,16.3088129 8.57750549,16.3086163 8.57769938,16.3084196 L11.3183885,16.3084162 L11.3183885,16.3026316 Z M8.94892039,0.069157046 L6.99580714,3.45204843 C6.92605355,3.42358222 6.8497272,3.40789474 6.76973684,3.40789474 C6.43909268,3.40789474 6.17105263,3.67593479 6.17105263,4.00657895 C6.17105263,4.02233545 6.17166132,4.03794979 6.17285648,4.05339973 L2.67285156,4.99122322 L2.67285156,3.32626825 L4.98991956,0.0826159025 L4.98991956,1.11574193 L8.94892039,0.069157046 Z M1.97684539,22.1052632 L8.01787141,16.4719153 C8.06078241,16.4816837 8.10544669,16.4868421 8.15131579,16.4868421 C8.21453716,16.4868421 8.27546973,16.4770426 8.33267738,16.4588796 L14.3876825,22.1052632 L1.97684539,22.1052632 Z" id="Combined-Shape"></path>
            </g>
        </g>
    </g>
</svg>