<?xml version="1.0" encoding="UTF-8"?>
<svg width="167px" height="40px" viewBox="0 0 167 40" version="1.1" xmlns="http://www.w3.org/2000/svg" xmlns:xlink="http://www.w3.org/1999/xlink">
    <!-- Generator: Sketch 48.2 (47327) - http://www.bohemiancoding.com/sketch -->
    <title>Logo</title>
    <desc>Created with Sketch.</desc>
    <defs></defs>
    <g id="Page-1" stroke="none" stroke-width="1" fill="none" fill-rule="evenodd">
        <g id="Logo">
            <path d="M54.7685547,27 L53.0283203,27 L53.0283203,20.5927734 L46.4980469,20.5927734 L46.4980469,27 L44.7578125,27 L44.7578125,13.9130859 L46.4980469,13.9130859 L46.4980469,19.0458984 L53.0283203,19.0458984 L53.0283203,13.9130859 L54.7685547,13.9130859 L54.7685547,27 Z M68.0400391,15.4160156 C68.5732449,16.0019561 68.9819322,16.7197223 69.2661133,17.5693359 C69.5502944,18.4189496 69.6923828,19.3828071 69.6923828,20.4609375 C69.6923828,21.5390679 69.5473647,22.5043903 69.2573242,23.3569336 C68.9672837,24.2094769 68.561526,24.919919 68.0400391,25.4882812 C67.5009739,26.0800811 66.8637732,26.5253891 66.128418,26.8242188 C65.3930627,27.1230484 64.5537157,27.2724609 63.6103516,27.2724609 C62.6904251,27.2724609 61.8540077,27.1201187 61.1010742,26.8154297 C60.3481408,26.5107407 59.7080104,26.0683623 59.1806641,25.4882812 C58.6533177,24.9082002 58.24756,24.1962933 57.9633789,23.3525391 C57.6791978,22.5087848 57.5371094,21.5449273 57.5371094,20.4609375 C57.5371094,19.3945259 57.677733,18.4379925 57.9589844,17.5913086 C58.2402358,16.7446247 58.6503879,16.0195343 59.1894531,15.4160156 C59.7050807,14.841794 60.345211,14.4023453 61.1098633,14.0976562 C61.8745155,13.7929672 62.7080033,13.640625 63.6103516,13.640625 C64.5478562,13.640625 65.390133,13.7944321 66.137207,14.1020508 C66.8842811,14.4096695 67.5185521,14.8476534 68.0400391,15.4160156 Z M67.8818359,20.4609375 C67.8818359,18.7617103 67.5009804,17.4506882 66.7392578,16.527832 C65.9775353,15.6049759 64.9375066,15.1435547 63.6191406,15.1435547 C62.2890558,15.1435547 61.2446327,15.6049759 60.4858398,16.527832 C59.727047,17.4506882 59.3476562,18.7617103 59.3476562,20.4609375 C59.3476562,22.177743 59.7343711,23.4916947 60.5078125,24.402832 C61.2812539,25.3139694 62.3183529,25.7695312 63.6191406,25.7695312 C64.9199284,25.7695312 65.9555626,25.3139694 66.7260742,24.402832 C67.4965859,23.4916947 67.8818359,22.177743 67.8818359,20.4609375 Z M83.2802734,27 L81.0214844,27 L76.6445312,21.796875 L74.1923828,21.796875 L74.1923828,27 L72.4521484,27 L72.4521484,13.9130859 L76.1171875,13.9130859 C76.9082071,13.9130859 77.5673802,13.964355 78.0947266,14.0668945 C78.6220729,14.1694341 79.0966776,14.3525377 79.5185547,14.6162109 C79.9931664,14.9150406 80.3637682,15.2915016 80.6303711,15.7456055 C80.896974,16.1997093 81.0302734,16.7753871 81.0302734,17.4726562 C81.0302734,18.4160203 80.7929711,19.2055632 80.3183594,19.8413086 C79.8437476,20.477054 79.1904338,20.9560531 78.3583984,21.2783203 L83.2802734,27 Z M79.2109375,17.5957031 C79.2109375,17.2207013 79.1450202,16.888185 79.0131836,16.5981445 C78.881347,16.308104 78.6630875,16.0634776 78.3583984,15.8642578 C78.1064441,15.6943351 77.8076189,15.5756839 77.4619141,15.5083008 C77.1162092,15.4409176 76.7089867,15.4072266 76.2402344,15.4072266 L74.1923828,15.4072266 L74.1923828,20.3466797 L75.9501953,20.3466797 C76.5009793,20.3466797 76.9814433,20.2983403 77.3916016,20.2016602 C77.8017599,20.10498 78.1503892,19.924806 78.4375,19.6611328 C78.7011732,19.4150378 78.8959955,19.1323258 79.0219727,18.8129883 C79.1479498,18.4936507 79.2109375,18.0878931 79.2109375,17.5957031 Z M94.4775391,23.2646484 C94.4775391,23.7744166 94.3588879,24.2783178 94.121582,24.7763672 C93.8842762,25.2744166 93.55176,25.6962873 93.1240234,26.0419922 C92.6552711,26.4169941 92.1088898,26.7099599 91.4848633,26.9208984 C90.8608367,27.131837 90.1093794,27.2373047 89.2304688,27.2373047 C88.2871047,27.2373047 87.4389686,27.1494149 86.6860352,26.9736328 C85.9331017,26.7978507 85.1669961,26.5371111 84.3876953,26.1914062 L84.3876953,24.0117188 L84.5107422,24.0117188 C85.1728549,24.5625028 85.9374957,24.9873032 86.8046875,25.2861328 C87.6718793,25.5849624 88.4863243,25.734375 89.2480469,25.734375 C90.3261773,25.734375 91.1655243,25.5322286 91.7661133,25.1279297 C92.3667022,24.7236308 92.6669922,24.1845737 92.6669922,23.5107422 C92.6669922,22.9306612 92.5249038,22.5029311 92.2407227,22.2275391 C91.9565415,21.9521471 91.524417,21.738282 90.9443359,21.5859375 C90.5048806,21.4687494 90.0288112,21.3720707 89.5161133,21.2958984 C89.0034154,21.2197262 88.4599638,21.1230475 87.8857422,21.0058594 C86.7255801,20.7597644 85.8657255,20.3393584 85.3061523,19.7446289 C84.7465792,19.1498994 84.4667969,18.3750048 84.4667969,17.4199219 C84.4667969,16.3242133 84.9296829,15.426273 85.8554688,14.7260742 C86.7812546,14.0258754 87.9560476,13.6757812 89.3798828,13.6757812 C90.2998093,13.6757812 91.1435508,13.763671 91.9111328,13.9394531 C92.6787148,14.1152353 93.3583955,14.33203 93.9501953,14.5898438 L93.9501953,16.6464844 L93.8271484,16.6464844 C93.3290991,16.2246073 92.6743205,15.8745131 91.862793,15.5961914 C91.0512655,15.3178697 90.2207074,15.1787109 89.3710938,15.1787109 C88.4394485,15.1787109 87.6909208,15.3720684 87.1254883,15.7587891 C86.5600558,16.1455097 86.2773438,16.6435516 86.2773438,17.2529297 C86.2773438,17.7978543 86.4179673,18.2255844 86.6992188,18.5361328 C86.9804702,18.8466812 87.4755824,19.0839836 88.1845703,19.2480469 C88.5595722,19.3300785 89.09277,19.4296869 89.7841797,19.546875 C90.4755894,19.6640631 91.061521,19.7841791 91.5419922,19.9072266 C92.5146533,20.1650404 93.2470679,20.5546849 93.7392578,21.0761719 C94.2314478,21.5976589 94.4775391,22.3271438 94.4775391,23.2646484 Z M105.894531,27 L97.2724609,27 L97.2724609,13.9130859 L105.894531,13.9130859 L105.894531,15.4599609 L99.0126953,15.4599609 L99.0126953,19.0458984 L105.894531,19.0458984 L105.894531,20.5927734 L99.0126953,20.5927734 L99.0126953,25.453125 L105.894531,25.453125 L105.894531,27 Z M117.170898,27 L108.311523,27 L108.311523,25.1630859 C108.926761,24.6357396 109.543454,24.1084011 110.161621,23.5810547 C110.779788,23.0537083 111.355466,22.5292995 111.888672,22.0078125 C113.013677,20.9179633 113.784178,20.0522493 114.200195,19.4106445 C114.616213,18.7690398 114.824219,18.0761756 114.824219,17.3320312 C114.824219,16.6523404 114.6001,16.1206074 114.151855,15.7368164 C113.703611,15.3530254 113.078129,15.1611328 112.275391,15.1611328 C111.742185,15.1611328 111.165042,15.2548819 110.543945,15.4423828 C109.922848,15.6298838 109.316409,15.9169903 108.724609,16.3037109 L108.636719,16.3037109 L108.636719,14.4580078 C109.052736,14.2529287 109.607907,14.0654305 110.302246,13.8955078 C110.996586,13.7255851 111.668942,13.640625 112.319336,13.640625 C113.66114,13.640625 114.712887,13.9643522 115.474609,14.6118164 C116.236332,15.2592806 116.617188,16.1367132 116.617188,17.2441406 C116.617188,17.74219 116.5542,18.2065408 116.428223,18.637207 C116.302245,19.0678732 116.116212,19.4765606 115.870117,19.8632812 C115.6416,20.2265643 115.373537,20.5839826 115.065918,20.9355469 C114.758299,21.2871111 114.384768,21.6767557 113.945312,22.1044922 C113.318356,22.7197296 112.670902,23.3159151 112.00293,23.8930664 C111.334958,24.4702177 110.71094,25.0048804 110.130859,25.4970703 L117.170898,25.4970703 L117.170898,27 Z M127.867188,27 L120.783203,27 L120.783203,25.6640625 L123.507813,25.6640625 L123.507813,16.8925781 L120.783203,16.8925781 L120.783203,15.6972656 C121.152346,15.6972656 121.547849,15.6665042 121.969727,15.6049805 C122.391604,15.5434567 122.710936,15.4541021 122.927734,15.3369141 C123.197267,15.190429 123.409667,15.0043957 123.564941,14.7788086 C123.720216,14.5532215 123.80957,14.2500019 123.833008,13.8691406 L125.195313,13.8691406 L125.195313,25.6640625 L127.867188,25.6640625 L127.867188,27 Z M140.101562,17.8681641 C140.101562,18.4482451 140.000489,18.9858374 139.79834,19.480957 C139.59619,19.9760767 139.313478,20.4052716 138.950195,20.7685547 C138.499021,21.2197288 137.965823,21.5581043 137.350586,21.7836914 C136.735348,22.0092785 135.958989,22.1220703 135.021484,22.1220703 L133.28125,22.1220703 L133.28125,27 L131.541016,27 L131.541016,13.9130859 L135.091797,13.9130859 C135.876957,13.9130859 136.541989,13.9790032 137.086914,14.1108398 C137.631839,14.2426764 138.115232,14.4492173 138.537109,14.7304688 C139.035159,15.0644548 139.420409,15.4804663 139.692871,15.9785156 C139.965333,16.476565 140.101562,17.1064415 140.101562,17.8681641 Z M138.291016,17.9121094 C138.291016,17.4609352 138.211915,17.068361 138.053711,16.734375 C137.895507,16.400389 137.655275,16.1279307 137.333008,15.9169922 C137.051756,15.7353507 136.730959,15.6049809 136.370605,15.5258789 C136.010252,15.4467769 135.55469,15.4072266 135.003906,15.4072266 L133.28125,15.4072266 L133.28125,20.6367188 L134.749023,20.6367188 C135.452152,20.6367188 136.023435,20.5737311 136.462891,20.4477539 C136.902346,20.3217767 137.259764,20.1210951 137.535156,19.8457031 C137.810548,19.5644517 138.005371,19.2685562 138.119629,18.9580078 C138.233887,18.6474594 138.291016,18.2988301 138.291016,17.9121094 Z M153.223633,27 L150.964844,27 L146.587891,21.796875 L144.135742,21.796875 L144.135742,27 L142.395508,27 L142.395508,13.9130859 L146.060547,13.9130859 C146.851566,13.9130859 147.51074,13.964355 148.038086,14.0668945 C148.565432,14.1694341 149.040037,14.3525377 149.461914,14.6162109 C149.936526,14.9150406 150.307128,15.2915016 150.57373,15.7456055 C150.840333,16.1997093 150.973633,16.7753871 150.973633,17.4726562 C150.973633,18.4160203 150.73633,19.2055632 150.261719,19.8413086 C149.787107,20.477054 149.133793,20.9560531 148.301758,21.2783203 L153.223633,27 Z M149.154297,17.5957031 C149.154297,17.2207013 149.08838,16.888185 148.956543,16.5981445 C148.824706,16.308104 148.606447,16.0634776 148.301758,15.8642578 C148.049803,15.6943351 147.750978,15.5756839 147.405273,15.5083008 C147.059569,15.4409176 146.652346,15.4072266 146.183594,15.4072266 L144.135742,15.4072266 L144.135742,20.3466797 L145.893555,20.3466797 C146.444339,20.3466797 146.924803,20.2983403 147.334961,20.2016602 C147.745119,20.10498 148.093749,19.924806 148.380859,19.6611328 C148.644533,19.4150378 148.839355,19.1323258 148.965332,18.8129883 C149.091309,18.4936507 149.154297,18.0878931 149.154297,17.5957031 Z M164.666992,15.4160156 C165.200198,16.0019561 165.608885,16.7197223 165.893066,17.5693359 C166.177248,18.4189496 166.319336,19.3828071 166.319336,20.4609375 C166.319336,21.5390679 166.174318,22.5043903 165.884277,23.3569336 C165.594237,24.2094769 165.188479,24.919919 164.666992,25.4882812 C164.127927,26.0800811 163.490726,26.5253891 162.755371,26.8242188 C162.020016,27.1230484 161.180669,27.2724609 160.237305,27.2724609 C159.317378,27.2724609 158.480961,27.1201187 157.728027,26.8154297 C156.975094,26.5107407 156.334964,26.0683623 155.807617,25.4882812 C155.280271,24.9082002 154.874513,24.1962933 154.590332,23.3525391 C154.306151,22.5087848 154.164062,21.5449273 154.164062,20.4609375 C154.164062,19.3945259 154.304686,18.4379925 154.585938,17.5913086 C154.867189,16.7446247 155.277341,16.0195343 155.816406,15.4160156 C156.332034,14.841794 156.972164,14.4023453 157.736816,14.0976562 C158.501469,13.7929672 159.334956,13.640625 160.237305,13.640625 C161.174809,13.640625 162.017086,13.7944321 162.76416,14.1020508 C163.511234,14.4096695 164.145505,14.8476534 164.666992,15.4160156 Z M164.508789,20.4609375 C164.508789,18.7617103 164.127933,17.4506882 163.366211,16.527832 C162.604488,15.6049759 161.56446,15.1435547 160.246094,15.1435547 C158.916009,15.1435547 157.871586,15.6049759 157.112793,16.527832 C156.354,17.4506882 155.974609,18.7617103 155.974609,20.4609375 C155.974609,22.177743 156.361324,23.4916947 157.134766,24.402832 C157.908207,25.3139694 158.945306,25.7695312 160.246094,25.7695312 C161.546882,25.7695312 162.582516,25.3139694 163.353027,24.402832 C164.123539,23.4916947 164.508789,22.177743 164.508789,20.4609375 Z" id="HORSE21PRO" fill="#FFFFFF"></path>
            <circle id="Oval-2" fill="#00AEEF" cx="20" cy="20" r="20"></circle>
            <g id="Icon" transform="translate(9.000000, 7.000000)" fill="#FFFFFF">
                <g id="Letter-1" transform="translate(10.263158, 0.000000)">
                    <path d="M9.94736842,13.2324785 L9.94736842,21.9473684 L3.78947368,21.9473684 L3.78947368,10.8747031 L6.57611101,7.43349262 C6.65073785,7.47582776 6.73701975,7.5 6.82894737,7.5 C6.89261148,7.5 6.95356779,7.48840651 7.00982025,7.46721558 L9.94736842,13.2324785 Z M9.94736842,12.7107889 L7.20743592,7.3333686 C7.27198897,7.26289986 7.31712088,7.17434706 7.33435457,7.07618726 L9.94736842,7.72768479 L9.94736842,12.7107889 Z M6.02112189,3.73965314 L6.56657006,6.54574071 C6.46454851,6.6065563 6.3854072,6.70176092 6.34514139,6.81535932 L3.78947368,7.45255884 L3.78947368,5.68421053 L2.60526316,5.68421053 L2.60526316,4.65789474 L6.02112189,3.73965314 Z M6.25041566,3.67801503 L9.94736842,2.68421053 L9.94736842,2.85362151 L7.07152896,6.53452816 C6.9992963,6.49570755 6.91669375,6.47368421 6.82894737,6.47368421 C6.81722411,6.47368421 6.80559268,6.47407733 6.79406552,6.4748511 L6.25041566,3.67801503 Z M3.78947368,10.4983573 L3.78947368,7.69665155 L6.32174719,7.06528485 C6.33333909,7.14085586 6.3614169,7.2109955 6.40219366,7.27191683 L3.78947368,10.4983573 Z M9.94736842,7.48359208 L7.31697018,6.82776014 C7.30104927,6.77888629 7.27799092,6.73323528 7.24902586,6.69203784 L9.94736842,3.23831686 L9.94736842,7.48359208 Z" id="Combined-Shape"></path>
                </g>
                <g id="Letter-2" transform="translate(0.000000, 3.000000)">
                    <path d="M9.51359494,7.58491546 C9.33414446,7.61246604 9.18532884,7.73297721 9.1178603,7.8957368 L8.16876652,7.76235037 C8.28901452,7.16485789 8.05808903,5.84953509 7.43230023,6.5927452 L5.05151587,5.6788477 C5.05225579,5.66757295 5.05263158,5.65619878 5.05263158,5.64473684 C5.05263158,5.51159537 5.00192649,5.3902967 4.91877325,5.29909776 L5.70459518,3.93801424 C5.73632868,3.94415319 5.76910465,3.94736842 5.80263158,3.94736842 C6.08244122,3.94736842 6.30994465,3.72341891 6.31567864,3.44498311 L9.19308792,2.67398362 C9.25949129,2.84344999 9.41341995,2.96900019 9.59925697,2.99501732 L9.51359494,7.58491546 Z M9.74507962,7.60213532 L9.82582479,2.97624769 C10.0335924,2.91060372 10.1842105,2.71631229 10.1842105,2.48684211 C10.1842105,2.46070793 10.1822569,2.43503005 10.1784877,2.40994655 L11.591029,2.03145723 C11.9215349,2.38274917 12.2900304,2.83994883 12.6315789,3.39473684 C12.6315789,3.39473684 11.9210526,3.71052632 11.9210526,3.71052632 C11.9210526,3.71052632 12.2639674,3.89606034 12.949797,4.26712839 L13.0263158,8.21052632 L12.5526316,7.65789474 L12.3947368,8.28947368 L12.4119012,8.35868406 L10.1020156,8.0340508 C10.0790056,7.8296958 9.93597549,7.66167248 9.74507962,7.60213532 Z M9.43686693,11.696116 L7.45275673,13.4030578 C7.37134726,13.2272321 7.19333837,13.1052632 6.98684211,13.1052632 C6.8523006,13.1052632 6.72985227,13.1570402 6.63833605,13.2417554 L4.24992702,10.7684854 C5.65657704,9.76606667 7.64667844,8.98048756 8.09332555,7.99091752 L9.08029828,8.12962749 C9.09715051,8.3628247 9.26983269,8.55283418 9.49472425,8.59603532 L9.43686693,11.696116 Z M9.67335991,11.7109546 L9.72788687,8.58710719 C9.8881133,8.54325702 10.0170545,8.42369292 10.0738615,8.2692637 L12.4733579,8.60649092 L12.6101074,9.15789474 L9.86842105,12.6315789 L9.67335991,11.7109546 Z M9.63438894,1.26271047 L9.63157895,1.26315789 L9.61826823,1.97636588 C9.37583399,2.00113795 9.18335852,2.19467511 9.16022762,2.43759152 L6.26585852,3.21313539 C6.24576486,3.17110806 6.22012018,3.13224234 6.1898736,3.09748737 L7.93592906,0.0732306025 L8.60526316,1.26315789 L9.90253649,0.463623047 L9.63438894,1.26271047 Z M9.85616953,1.2377989 C10.2230155,1.17088315 10.468079,1.157235 10.59136,1.19685444 C10.6968759,1.23076464 11.0093988,1.44960978 11.4014496,1.83705791 L10.088819,2.18877622 C10.0282956,2.10409882 9.94266838,2.03859356 9.84281056,2.00313374 L9.85616953,1.2377989 Z M3.05146344,9.43294956 L2.97621028,9.1705106 C3.13182579,9.08237442 3.23684211,8.91529325 3.23684211,8.72368421 C3.23684211,8.60315308 3.19528711,8.49232764 3.12572231,8.40475308 L4.4297363,6.1461346 C4.46509212,6.15383692 4.50180903,6.15789474 4.53947368,6.15789474 C4.72762258,6.15789474 4.89212148,6.05663702 4.98144839,5.90564355 L7.29641908,6.79427754 C6.84174684,7.58970832 6.12206457,7.75435694 4.65789474,7.97368421 C4.04139237,8.6511019 3.47093057,9.19459231 3.05146344,9.43294956 Z M2.83381184,9.53316081 C2.80946867,9.54121221 2.78590651,9.54772016 2.76315789,9.55263158 C2.76315789,10.5247867 2.27012233,11.1070621 1.81578947,10.7368421 C1.808642,10.7285455 1.8012817,10.7202209 1.79370859,10.7118685 L2.64847492,9.23136981 C2.6730226,9.23497501 2.69813536,9.23684211 2.72368421,9.23684211 C2.73206202,9.23684211 2.74039294,9.23664134 2.74867242,9.23624436 L2.83381184,9.53316081 Z M1.80087493,5.07162914 L2.0172452,4.76779256 L4.03642366,5.54288255 C4.02979443,5.57580278 4.02631579,5.60986357 4.02631579,5.64473684 C4.02631579,5.80543541 4.1001825,5.94888148 4.21581457,6.04297369 L2.9375106,8.25706111 C2.87241749,8.2271838 2.79999613,8.21052632 2.72368421,8.21052632 C2.71610983,8.21052632 2.70857378,8.21069042 2.70107942,8.21101527 L1.80087493,5.07162914 Z M1.63287678,5.34500251 L2.47323697,8.27568681 C2.31647861,8.36350864 2.21052632,8.53122318 2.21052632,8.72368421 C2.21052632,8.89634644 2.29580087,9.04909172 2.42653197,9.14210207 L1.51374277,10.7230993 L1.42105263,10.8157895 C1.21091566,10.8157895 1.08389829,10.8157895 1.04000051,10.8157895 C1.04000051,10.8157895 0.0225123355,9.79321289 0.0225123355,9.79321289 C0.0225123355,9.79321289 0.0225123355,8.22729492 0.0225123355,8.22729492 C0.228848735,7.86559847 0.765636823,6.90483413 1.6328766,5.3450019 Z M2.1591227,4.56856199 L2.16777632,4.55641019 L5.3636326,3.70008308 C5.39626371,3.75384704 5.43849301,3.80113939 5.48794299,3.83958263 L4.72258923,5.16521424 C4.66571557,5.14348297 4.60398479,5.13157895 4.53947368,5.13157895 C4.37583685,5.13157895 4.23008918,5.20817156 4.13612529,5.32746218 L2.1591227,4.56856199 Z M4.05106972,10.9035103 L6.47625162,13.4148597 C6.28132004,13.4755419 6.13231732,13.5845221 6.02924348,13.7418003 L0.836719497,13.7418003 C1.0254061,13.2388325 1.82554407,12.3763261 4.05106972,10.9035103 Z M0.789473684,13.9786424 L6.6213675,13.9786424 C6.63001973,13.98742 6.6389858,13.9958874 6.64824751,14.0040265 L1.34716226,18.9473684 L0.789473684,18.9473684 C0.789473684,15.754541 0.789473684,14.0982988 0.789473684,13.9786418 Z M9.70147584,13.9736842 L13.1929225,13.9736842 L13.1929225,18.9473684 L12.6795759,18.9473684 L7.3518149,13.9791509 C7.35198126,13.9789825 7.35214756,13.978814 7.35231375,13.9786454 L9.70147584,13.9786424 L9.70147584,13.9736842 Z M7.6705032,0.059277468 L5.99640612,2.95889866 C5.93661733,2.93449905 5.87119474,2.92105263 5.80263158,2.92105263 C5.5192223,2.92105263 5.28947368,3.15080125 5.28947368,3.43421053 C5.28947368,3.4477161 5.28999542,3.46109982 5.29101984,3.47434262 L2.29101563,4.27819133 L2.29101563,2.85108707 L4.27707391,0.0708136308 L4.27707391,0.956350226 L7.6705032,0.059277468 Z M1.69443891,18.9473684 L6.87246121,14.1187845 C6.90924206,14.1271574 6.94752573,14.1315789 6.98684211,14.1315789 C7.04103185,14.1315789 7.09325976,14.1231793 7.1422949,14.1076111 L12.3322992,18.9473684 L1.69443891,18.9473684 Z" id="Combined-Shape"></path>
                </g>
            </g>
        </g>
    </g>
</svg>