<?xml version="1.0" encoding="UTF-8"?>
<svg width="236px" height="226px" viewBox="0 0 236 226" version="1.1" xmlns="http://www.w3.org/2000/svg" xmlns:xlink="http://www.w3.org/1999/xlink">
    <!-- Generator: Sketch 48.2 (47327) - http://www.bohemiancoding.com/sketch -->
    <title>Logo</title>
    <desc>Created with Sketch.</desc>
    <defs></defs>
    <g id="Page-1" stroke="none" stroke-width="1" fill="none" fill-rule="evenodd" opacity="0.247339221">
        <g id="Logo" transform="translate(0.000000, -31.000000)" fill="#1DAFEC">
            <g id="Letter-1" transform="translate(119.736842, 0.000000)">
                <path d="M116.052632,154.378916 L116.052632,256.052632 L44.2105263,256.052632 L44.2105263,126.871536 L76.7212951,86.7240805 C77.5919416,87.2179906 78.5985637,87.5 79.6710526,87.5 C80.4138006,87.5 81.1249576,87.3647426 81.7812362,87.1175151 L116.052632,154.378916 Z M116.052632,148.292537 L84.0867523,85.555967 C84.8398714,84.7338317 85.3664103,83.7007157 85.56747,82.5555181 L116.052632,90.1563225 L116.052632,148.292537 Z M70.2464221,43.6292867 L76.609984,76.366975 C75.4197326,77.0764902 74.4964174,78.1872108 74.0266495,79.5125254 L44.2105263,86.9465198 L44.2105263,66.3157895 L30.3947368,66.3157895 L30.3947368,54.3421053 L70.2464221,43.6292867 Z M72.9215161,42.9101754 L116.052632,31.3157895 L116.052632,33.292251 L82.5011712,76.2361619 C81.6584569,75.7832548 80.6947604,75.5263158 79.6710526,75.5263158 C79.5342813,75.5263158 79.3985812,75.5309021 79.2640978,75.5399295 L72.9215161,42.9101754 Z M44.2105263,122.480835 L44.2105263,89.794268 L73.7537173,82.4283232 C73.8889561,83.3099851 74.2165305,84.1282809 74.6922593,84.8390297 L44.2105263,122.480835 Z M116.052632,87.3085743 L85.3646521,79.6572017 C85.1789082,79.0870068 84.9098941,78.5544116 84.5719684,78.0737747 L116.052632,37.7803634 L116.052632,87.3085743 Z" id="Combined-Shape"></path>
            </g>
            <g id="Letter-2" transform="translate(0.000000, 35.000000)">
                <path d="M110.991941,88.4906804 C108.898352,88.8121037 107.16217,90.2180675 106.375037,92.1169293 L95.302276,90.5607543 C96.7051694,83.5900087 94.0110387,68.2445761 86.7101694,76.9153606 L58.9343518,66.2532232 C58.9429842,66.1216844 58.9473684,65.9889858 58.9473684,65.8552632 C58.9473684,64.3019459 58.3558091,62.8867948 57.3856879,61.8228071 L66.5536104,45.9434995 C66.9238345,46.0151205 67.3062209,46.0526316 67.6973684,46.0526316 C70.9618142,46.0526316 73.6160209,43.4398873 73.6829175,40.1914697 L107.252692,31.1964756 C108.027398,33.1735832 109.823233,34.6383356 111.991331,34.9418688 L110.991941,88.4906804 Z M113.692596,88.6915787 L114.634623,34.7228898 C117.058578,33.9570434 118.815789,31.6903101 118.815789,29.0131579 C118.815789,28.7082592 118.792997,28.408684 118.749023,28.116043 L135.228672,23.7003344 C139.084573,27.7987403 143.383689,33.1327364 147.368421,39.6052632 C147.368421,39.6052632 139.078947,43.2894737 139.078947,43.2894737 C139.078947,43.2894737 143.07962,45.4540373 151.080965,49.7831646 L151.973684,95.7894737 L146.447368,89.3421053 L144.605263,96.7105263 L144.805514,97.5179807 L117.856848,93.7305927 C117.588399,91.346451 115.919714,89.386179 113.692596,88.6915787 Z M110.096781,136.454686 L86.9488285,156.369008 C85.9990514,154.317708 83.922281,152.894737 81.5131579,152.894737 C79.943507,152.894737 78.5149432,153.498802 77.447254,154.487146 L49.5824739,125.632322 C65.9933988,113.937445 89.2112485,104.772355 94.4221315,93.2273711 L105.936813,94.8456541 C106.133423,97.5662882 108.148048,99.7830654 110.771783,100.287079 L110.096781,136.454686 Z M112.855866,136.627804 L113.492014,100.182917 C115.361322,99.6713319 116.865635,98.2764174 117.528385,96.4747432 L145.522509,100.409061 L147.11792,106.842105 L115.131579,147.368421 L112.855866,136.627804 Z M112.401204,14.7316222 L112.368421,14.7368421 L112.213129,23.0576019 C109.38473,23.3466095 107.139183,25.6045429 106.869322,28.4385678 L73.1016827,37.4865795 C72.8672567,36.9962607 72.5680687,36.5428273 72.215192,36.1373526 L92.585839,0.854357029 L100.394737,14.7368421 L115.529592,5.40893555 L112.401204,14.7316222 Z M114.988644,14.4409872 C119.268515,13.6603034 122.127589,13.501075 123.565867,13.9633018 C124.796886,14.3589208 128.442986,16.9121141 133.016912,21.4323423 L117.702888,25.5357226 C116.996782,24.5478196 115.997798,23.7835915 114.83279,23.3698936 L114.988644,14.4409872 Z M35.6004068,110.051078 L34.7224532,106.98929 C36.5379676,105.961035 37.7631579,104.011755 37.7631579,101.776316 C37.7631579,100.370119 37.2783496,99.0771558 36.4667603,98.0554526 L51.6802568,71.7049037 C52.0927414,71.794764 52.5211053,71.8421053 52.9605263,71.8421053 C55.1555968,71.8421053 57.0747506,70.6607652 58.1168979,68.8991748 L85.1248893,79.2665713 C79.8203798,88.5465971 71.4240866,90.4674976 54.3421053,93.0263158 C47.149576,100.929524 40.4941869,107.270247 35.6004035,110.05108 Z M33.0611381,111.220209 C32.7771345,111.314142 32.5022426,111.390069 32.2368421,111.447368 C32.2368421,122.789178 26.4847605,129.582391 21.1842105,125.263158 C21.1008233,125.166364 21.0149532,125.069244 20.9266002,124.971799 L30.8988741,107.699314 C31.1852636,107.741375 31.4782459,107.763158 31.7763158,107.763158 C31.8740569,107.763158 31.971251,107.760816 32.0678449,107.756184 L33.0611381,111.220209 Z M21.0102075,59.1690067 L23.5345274,55.6242465 L47.0916093,64.666963 C47.0142684,65.0510325 46.9736842,65.4484083 46.9736842,65.8552632 C46.9736842,67.7300798 47.8354625,69.4036173 49.1845033,70.5013598 L34.270957,96.3323796 C33.5115373,95.9838111 32.6666215,95.7894737 31.7763158,95.7894737 C31.687948,95.7894737 31.6000274,95.7913882 31.5125932,95.7951781 L21.0102075,59.1690067 Z M19.050227,62.3583555 L28.8544314,96.5496795 C27.0255838,97.5742674 25.7894737,99.5309371 25.7894737,101.776316 C25.7894737,103.790708 26.7843434,105.572737 28.3095396,106.657857 L17.6603323,125.102826 L16.5789474,126.184211 C14.1273494,126.184211 12.64548,126.184211 12.1333393,126.184211 C12.1333393,126.184211 0.262643914,114.25415 0.262643914,114.25415 C0.262643914,114.25415 0.262643914,95.9851074 0.262643914,95.9851074 C2.66990191,91.7653155 8.9324296,80.5563982 19.050227,62.3583555 Z M25.1897648,53.2998899 L25.2907237,53.1581189 L62.5757137,43.167636 C62.95641,43.7948821 63.4490852,44.3466262 64.0260016,44.7951307 L55.0968743,60.2608328 C54.4333483,60.0073013 53.7131559,59.8684211 52.9605263,59.8684211 C51.0514299,59.8684211 49.3510405,60.7620016 48.254795,62.1537255 L25.1897648,53.2998899 Z M47.26248,127.20762 L75.556269,156.506696 C73.2820671,157.214656 71.5437021,158.486092 70.3411739,160.321004 L9.76172746,160.321004 C11.9630674,154.45305 21.2980088,144.390475 47.26248,127.20762 Z M9.21052632,163.084162 L77.2492875,163.084162 C77.3502302,163.186567 77.4548343,163.285353 77.5628877,163.380309 L15.716893,221.052632 L9.21052632,221.052632 C9.21052632,183.803037 9.21052632,164.480214 9.21052632,163.084162 Z M113.183885,163.026316 L153.917429,163.026316 L153.917429,221.052632 L147.928385,221.052632 L85.7711738,163.090094 C85.7731261,163.088117 85.7750778,163.08614 85.7770282,163.084162 L113.183885,163.084162 L113.183885,163.026316 Z M89.4892039,0.69157046 L69.9580714,34.5204843 C69.2605355,34.2358222 68.497272,34.0789474 67.6973684,34.0789474 C64.3909268,34.0789474 61.7105263,36.7593479 61.7105263,40.0657895 C61.7105263,40.2233545 61.7166132,40.3794979 61.7285648,40.5339973 L26.7285156,49.9122322 L26.7285156,33.2626825 L49.8991956,0.826159025 L49.8991956,11.1574193 L89.4892039,0.69157046 Z M19.7684539,221.052632 L80.1787141,164.719153 C80.6078241,164.816837 81.0544669,164.868421 81.5131579,164.868421 C82.1453716,164.868421 82.7546973,164.770426 83.3267738,164.588796 L143.876825,221.052632 L19.7684539,221.052632 Z" id="Combined-Shape"></path>
            </g>
        </g>
    </g>
</svg>