<?xml version="1.0" encoding="UTF-8"?>
<svg width="24px" height="24px" viewBox="0 0 24 24" version="1.1" xmlns="http://www.w3.org/2000/svg" xmlns:xlink="http://www.w3.org/1999/xlink">
    <!-- Generator: Sketch 48.2 (47327) - http://www.bohemiancoding.com/sketch -->
    <title>Rectangle</title>
    <desc>Created with Sketch.</desc>
    <defs></defs>
    <g id="Page-1" stroke="none" stroke-width="1" fill="none" fill-rule="evenodd">
        <g id="baggage" transform="translate(2.000000, 3.000000)">
            <path d="M16,3 L16,18 L4,18 L4,3 L16,3 Z M17,3 L19,3 C19.5522847,3 20,3.44771525 20,4 L20,17 C20,17.5522847 19.5522847,18 19,18 L17,18 L17,3 Z M3,3 L3,18 L1,18 C0.44771525,18 6.76353751e-17,17.5522847 0,17 L0,4 C-6.76353751e-17,3.44771525 0.44771525,3 1,3 L3,3 Z" id="Combined-Shape" fill="#0344D6"></path>
            <rect id="Rectangle-3" stroke="#0344D6" stroke-width="2" x="7" y="0" width="6" height="6" rx="1"></rect>
        </g>
    </g>
</svg>