<?xml version="1.0" encoding="UTF-8"?>
<svg width="24px" height="24px" viewBox="0 0 24 24" version="1.1" xmlns="http://www.w3.org/2000/svg" xmlns:xlink="http://www.w3.org/1999/xlink">
    <!-- Generator: Sketch 48.2 (47327) - http://www.bohemiancoding.com/sketch -->
    <title>Rectangle</title>
    <desc>Created with Sketch.</desc>
    <defs></defs>
    <g id="Page-1" stroke="none" stroke-width="1" fill="none" fill-rule="evenodd">
        <g id="no-baggage" transform="translate(2.000000, 3.000000)">
            <path d="M16,3 L16,18 L4,18 L4,3 L16,3 Z M17,3 L19,3 C19.5522847,3 20,3.44771525 20,4 L20,17 C20,17.5522847 19.5522847,18 19,18 L17,18 L17,3 Z M3,3 L3,18 L1,18 C0.44771525,18 6.76353751e-17,17.5522847 0,17 L0,4 C-6.76353751e-17,3.44771525 0.44771525,3 1,3 L3,3 Z" id="Combined-Shape" fill="#B4B4B4"></path>
            <rect id="Rectangle-3" stroke="#B4B4B4" stroke-width="2" x="7" y="0" width="6" height="6" rx="1"></rect>
            <polygon id="Path-2" fill="#FA0909" points="7.01866912 8.00245325 9.01402868 9.99781281 7 12.0118415 7.992398 13.0042395 10.0007363 10.9959012 12.0291604 13.0243254 13.0288067 12.0246791 11.0165592 10.0124316 13.0201024 8.00888846 12.0112139 7 10.0079906 9.00322327 8.02582815 7.0210608"></polygon>
        </g>
    </g>
</svg>