<?xml version="1.0" encoding="UTF-8"?>
<svg width="24px" height="24px" viewBox="0 0 24 24" version="1.1" xmlns="http://www.w3.org/2000/svg" xmlns:xlink="http://www.w3.org/1999/xlink">
    <!-- Generator: Sketch 48.2 (47327) - http://www.bohemiancoding.com/sketch -->
    <title>Rectangle</title>
    <desc>Created with Sketch.</desc>
    <defs></defs>
    <g id="Page-1" stroke="none" stroke-width="1" fill="none" fill-rule="evenodd">
        <g id="luggage" transform="translate(6.000000, 2.000000)">
            <path d="M12,8 L0,8 L0,6 C-6.76353751e-17,5.44771525 0.44771525,5 1,5 L11,5 C11.5522847,5 12,5.44771525 12,6 L12,8 Z M12,9 L12,18 C12,18.5522847 11.5522847,19 11,19 L1,19 C0.44771525,19 6.76353751e-17,18.5522847 0,18 L0,9 L12,9 Z" id="Combined-Shape" fill="#0344D6"></path>
            <rect id="Rectangle-6" stroke="#0344D6" x="3.5" y="0.5" width="5" height="6" rx="1"></rect>
            <circle id="Oval" fill="#0344D6" cx="3" cy="19" r="1"></circle>
            <circle id="Oval" fill="#0344D6" cx="9" cy="19" r="1"></circle>
        </g>
    </g>
</svg>